<svg width="102" height="102" viewBox="0 0 102 102" fill="none" xmlns="http://www.w3.org/2000/svg">
<path d="M76.7746 11.2815C76.2947 11.0659 75.9561 10.9756 75.7589 11.0105C75.5552 11.0472 75.3181 11.2975 75.0475 11.7613L71.8599 17.2259C71.6056 17.6618 71.506 17.9842 71.561 18.1931C71.6136 18.4061 71.8586 18.6615 72.2958 18.9594L72.1628 19.1873L68.6898 17.1614L68.8227 16.9335C69.2886 17.1731 69.6357 17.2764 69.8639 17.2434C70.0882 17.2081 70.3193 16.9864 70.5573 16.5786L74.0003 10.6761C74.0796 10.5402 74.1206 10.4194 74.1233 10.3137C74.1196 10.2098 74.0456 10.1023 73.9014 9.99132C73.8164 9.92567 73.7251 9.86169 73.6274 9.79937C73.5258 9.73472 73.335 9.62075 73.0551 9.45746C71.9634 8.82064 71.1731 8.48023 70.6842 8.43624C70.1953 8.39225 69.5552 8.63519 68.7637 9.16505L68.4518 8.9831L70.2938 7.20357L76.904 11.0595L76.7746 11.2815Z" fill="#333333"/>
<path d="M66.2686 9.07771C66.0049 9.96045 65.5028 10.6222 64.7623 11.0629C64.0161 11.5068 63.2016 11.5969 62.3189 11.3332C61.4406 11.0708 60.7992 10.5652 60.3948 9.81626C59.9904 9.06733 59.9313 8.21379 60.2176 7.25564C60.4813 6.3729 60.99 5.68898 61.7437 5.20386C62.4974 4.71875 63.3178 4.6087 64.205 4.87372C65.0567 5.12814 65.6841 5.6562 66.0872 6.4579C66.4904 7.25959 66.5508 8.13286 66.2686 9.07771ZM62.6245 10.9896C62.9749 11.0943 63.3132 11.0697 63.6394 10.9159C64.2036 10.6448 64.6334 10.0146 64.9289 9.0254C65.1648 8.23581 65.2073 7.44645 65.0565 6.65732C64.9012 5.86686 64.5065 5.37689 63.8721 5.1874C63.3753 5.03899 62.9256 5.15348 62.5229 5.53087C62.1159 5.90693 61.8017 6.46536 61.5804 7.20615C61.3512 7.97356 61.3059 8.74763 61.4448 9.52835C61.5836 10.3091 61.9768 10.7962 62.6245 10.9896Z" fill="#333333"/>
<path d="M57.4342 3.76809C57.0067 3.76349 56.7184 3.80973 56.5694 3.90679C56.4199 4.00847 56.3271 4.24361 56.291 4.61221L55.9862 7.72925C55.9416 8.1854 55.9536 8.51451 56.0222 8.71659C56.0858 8.92283 56.2305 9.03699 56.4562 9.05907C56.5023 9.06357 56.5652 9.06275 56.6449 9.05658C56.7195 9.05458 56.7992 9.04841 56.8839 9.03809L56.8616 9.26617C56.59 9.33264 56.3112 9.40073 56.0253 9.47046C55.7394 9.54018 55.5414 9.5906 55.4314 9.6217C55.1924 9.68672 54.9454 9.76258 54.6904 9.84928C54.6582 9.84612 54.6409 9.8328 54.6385 9.80931C54.6315 9.78537 54.6317 9.73654 54.6389 9.66282L54.7497 8.52936C54.4147 8.91059 54.1 9.20311 53.8057 9.4069C53.5067 9.61025 53.2098 9.6975 52.9149 9.66867C52.6799 9.64569 52.4956 9.55557 52.3622 9.39831C52.2282 9.24567 52.1716 9.06337 52.1924 8.85142C52.2108 8.66251 52.284 8.50918 52.4118 8.39143C52.535 8.27323 52.6818 8.22247 52.8523 8.23914C53.0274 8.25626 53.1969 8.35424 53.3608 8.53308C53.5202 8.71147 53.6505 8.80562 53.7519 8.81553C53.9131 8.8313 54.1241 8.71936 54.3848 8.47971C54.645 8.24467 54.7886 7.98892 54.8156 7.71246L55.1205 4.59542C55.1592 4.19917 55.0941 3.9137 54.9251 3.73902C54.7557 3.56895 54.4563 3.46757 54.0269 3.43488L54.0492 3.2068L57.4565 3.54001L57.4342 3.76809Z" fill="#333333"/>
<path d="M46.9023 9.76507C46.2521 9.82302 45.6625 9.64783 45.1334 9.23949C44.6047 8.83576 44.3036 8.22118 44.2301 7.39576L48.6223 7.00429C48.4808 5.93858 48.1693 5.18085 47.6877 4.7311C47.206 4.28134 46.6655 4.08318 46.066 4.13661C45.5818 4.17977 45.185 4.34295 44.8756 4.62616C44.5662 4.90938 44.2916 5.29639 44.0518 5.7872L43.8023 5.72577C43.9392 5.12329 44.246 4.54982 44.7227 4.00535C45.1947 3.4613 45.8066 3.15578 46.5582 3.08879C47.4252 3.01152 48.1253 3.27912 48.6586 3.89159C49.1873 4.50447 49.4897 5.23746 49.5657 6.09055C49.6483 7.01742 49.4453 7.84193 48.9565 8.56409C48.4678 9.28625 47.7831 9.68657 46.9023 9.76507ZM47.2585 9.22438C47.7842 9.17753 48.1646 8.9089 48.3998 8.4185C48.5251 8.15634 48.6032 7.83332 48.6341 7.44944L45.7152 7.7096C45.807 8.16621 45.9252 8.50194 46.0699 8.7168C46.332 9.10245 46.7282 9.27165 47.2585 9.22438Z" fill="#333333"/>
<path d="M39.5755 4.24243C39.2468 4.39537 39.0407 4.53362 38.9573 4.65719C38.8286 4.84629 38.8326 5.13029 38.9691 5.5092L40.1866 8.88671C40.3028 9.209 40.4225 9.40453 40.5457 9.4733C40.6645 9.54365 40.822 9.5435 41.0179 9.47285C41.1094 9.43988 41.1775 9.41041 41.2223 9.38443C41.2627 9.36002 41.3095 9.32594 41.3626 9.28218L41.445 9.51083L41.0312 9.83717C40.8817 9.95502 40.6399 10.1578 40.3056 10.4456C39.9714 10.7334 39.7934 10.8813 39.7716 10.8891C39.7498 10.897 39.7328 10.8908 39.7206 10.8706C39.7084 10.8504 39.6913 10.8098 39.6694 10.7488L39.3514 9.86687C39.0616 10.4143 38.7865 10.8185 38.5263 11.0796C38.2677 11.3451 37.9729 11.5375 37.6419 11.6568C37.1933 11.8185 36.7812 11.7948 36.4056 11.5857C36.2066 11.4704 36.0104 11.2877 35.8168 11.0376C35.6123 11.4804 35.4185 11.8234 35.2355 12.0665C34.9191 12.4857 34.5453 12.773 34.1141 12.9284C33.4129 13.1812 32.8419 13.0647 32.4011 12.5789C32.1499 12.3053 31.8987 11.82 31.6475 11.1232L30.6702 8.41205C30.5588 8.10282 30.4151 7.91593 30.2393 7.85136C30.0607 7.79271 29.7865 7.81033 29.4168 7.90422L29.3556 7.73437L32.3019 6.67233L32.3679 6.85525C32.0015 7.02667 31.7808 7.19238 31.7056 7.35236C31.626 7.5139 31.6514 7.77542 31.7817 8.13691L32.7966 10.9526C32.9489 11.375 33.1069 11.67 33.2705 11.8373C33.5604 12.1364 33.9405 12.2011 34.4109 12.0316C34.694 11.9295 34.9412 11.7346 35.1524 11.4469C35.2743 11.2799 35.4097 11.0343 35.5585 10.71L34.3528 7.36513C34.2257 7.01235 34.0681 6.76648 33.8802 6.62752C33.688 6.49012 33.3892 6.48711 32.9838 6.61847L32.9226 6.44862L35.9212 5.36774L35.9824 5.5376C35.5875 5.739 35.3601 5.93415 35.3002 6.12305C35.2404 6.31195 35.3148 6.69602 35.5236 7.27527L36.183 9.10448C36.4248 9.77519 36.6347 10.2212 36.8129 10.4424C37.1105 10.8174 37.4923 10.9209 37.9583 10.7529C38.2239 10.6571 38.4586 10.4889 38.6622 10.2482C38.8673 10.0119 39.0255 9.74077 39.1367 9.43494L37.8486 5.86144C37.7293 5.53044 37.5902 5.3222 37.4315 5.23671C37.2684 5.1528 36.9922 5.17852 36.603 5.31389L36.5418 5.14403L39.5143 4.07258L39.5755 4.24243Z" fill="#333333"/>
<path d="M25.8564 20.9852C25.9875 21.135 26.048 21.3097 26.038 21.5092C26.0279 21.7086 25.9463 21.8754 25.7929 22.0095C25.6431 22.1406 25.4687 22.1979 25.2696 22.1813C25.0702 22.1712 24.9034 22.0896 24.7693 21.9362C24.6382 21.7864 24.5794 21.6102 24.5929 21.4077C24.606 21.2118 24.6875 21.0482 24.8373 20.9172C24.9906 20.783 25.1653 20.7225 25.3613 20.7356C25.5603 20.7522 25.7254 20.8354 25.8564 20.9852ZM20.7506 13.7987C20.4083 14.1597 20.228 14.4281 20.2096 14.6041C20.1944 14.7835 20.3651 15.0771 20.7217 15.4847L22.9027 17.9779C23.1008 18.2044 23.2537 18.3474 23.3612 18.4071C23.5385 18.5043 23.7107 18.4797 23.878 18.3334C23.9163 18.2998 23.9516 18.2628 23.9838 18.2223C24.0126 18.1849 24.0927 18.0655 24.2243 17.8644L24.366 18.0264L24.2053 18.2962C23.7692 19.0282 23.4752 19.5499 23.3232 19.8613C23.2622 19.9885 23.2178 20.0642 23.1899 20.0886C23.1616 20.0703 23.1352 20.0472 23.1108 20.0194L19.8279 16.2666C19.4805 15.8694 19.2155 15.6614 19.033 15.6426C18.847 15.6269 18.5729 15.753 18.2105 16.0208L18.0825 15.8744L20.6226 13.6523L20.7506 13.7987Z" fill="#333333"/>
<path d="M14.9871 21.0275C14.6652 20.9278 14.3694 20.9221 14.0998 21.0106C13.8309 21.1056 13.5964 21.2805 13.3963 21.5354C13.0875 21.9286 13.0192 22.4166 13.1915 22.9992C13.3646 23.5884 13.8007 24.1575 14.4997 24.7065C15.1697 25.2326 15.7847 25.4801 16.3448 25.449C16.902 25.4216 17.3307 25.2167 17.631 24.8344C17.8425 24.5649 17.9518 24.2534 17.9587 23.8998C17.9693 23.549 17.8945 23.3107 17.7343 23.1849L14.9871 21.0275ZM13.0904 16.7303C12.8435 17.0897 12.7462 17.3635 12.7985 17.5517C12.8479 17.7436 13.0056 17.9439 13.2714 18.1527L18.5145 22.2701C18.7912 22.4874 18.995 22.5914 19.1258 22.5823C19.2573 22.5797 19.396 22.4855 19.5419 22.2998C19.5733 22.2598 19.6015 22.2201 19.6265 22.1808C19.6486 22.1452 19.6799 22.0903 19.7204 22.0162L19.9006 22.1578L19.6625 22.8096C19.6519 22.8306 19.4901 23.2952 19.1773 24.2033C19.163 24.2215 19.1439 24.2271 19.1199 24.2201C19.0968 24.2195 19.0743 24.2107 19.0525 24.1936L18.3152 23.6146C18.3667 24.0436 18.3793 24.3949 18.3529 24.6684C18.2994 25.1562 18.1369 25.5731 17.8653 25.919C17.4707 26.4215 16.917 26.6842 16.2043 26.7073C15.4924 26.7369 14.765 26.46 14.0223 25.8767C13.294 25.3048 12.8047 24.5674 12.5544 23.6644C12.3011 22.7651 12.4333 21.9859 12.9508 21.3268C13.1109 21.1229 13.2751 20.9664 13.4433 20.8571C13.7028 20.6841 14.0116 20.5794 14.3699 20.5429L12.584 19.1404C12.2162 18.8516 11.9433 18.7344 11.7652 18.7888C11.5871 18.8432 11.3248 19.061 10.9783 19.4423L10.7871 19.2922L12.9102 16.5887L13.0904 16.7303Z" fill="#333333"/>
<path d="M10.9355 28.4702L10.8338 28.6755C10.3136 28.5366 9.8869 28.4853 9.5537 28.5217C8.94521 28.5819 8.50222 28.892 8.22472 29.452C8.07056 29.7631 8.03433 30.05 8.11602 30.3127C8.1998 30.5815 8.37858 30.7838 8.65237 30.9194C8.82659 31.0058 9.02029 31.0372 9.23346 31.0136C9.44663 30.9901 9.6947 30.8857 9.97768 30.7004L10.7212 30.2008C11.2478 29.8262 11.7097 29.5875 12.1069 29.4846C12.504 29.3817 12.8913 29.4238 13.2688 29.6109C13.7334 29.8411 14.0329 30.1961 14.1671 30.676C14.3013 31.1558 14.2441 31.6467 13.9954 32.1487C13.8864 32.3685 13.7257 32.5886 13.5133 32.8088C13.2987 33.0332 13.1833 33.162 13.1668 33.1951C13.1298 33.2698 13.1135 33.3289 13.1178 33.3723C13.1221 33.4158 13.1409 33.4613 13.1742 33.5088L13.1002 33.6581L11.3425 32.8415L11.4381 32.6486C11.8816 32.765 12.2503 32.8082 12.5442 32.7781C13.0865 32.7265 13.4778 32.458 13.7183 31.9727C13.8622 31.6823 13.8861 31.4099 13.7899 31.1556C13.6938 30.9013 13.5254 30.7145 13.2848 30.5953C12.9032 30.4062 12.4212 30.5239 11.8388 30.9483L10.9901 31.5508C10.0711 32.1959 9.29213 32.3602 8.6533 32.0437C8.16381 31.8011 7.85498 31.4182 7.7268 30.8948C7.59657 30.3756 7.67842 29.8194 7.97236 29.2262C8.09569 28.9773 8.27694 28.7158 8.51613 28.4416C8.75531 28.1675 8.88929 28.0014 8.91807 27.9433C8.94273 27.8935 8.94565 27.8407 8.92681 27.7849C8.91213 27.7311 8.88503 27.6815 8.84553 27.6361L8.9257 27.4743L10.9355 28.4702Z" fill="#333333"/>
<path d="M11.1416 38.9352L6.84028 37.8167C6.5356 37.7375 6.28034 37.7166 6.0745 37.7539C5.69087 37.8312 5.44138 38.0916 5.32604 38.5352C5.24681 38.8398 5.27015 39.164 5.39604 39.5077C5.46495 39.7026 5.57584 39.9108 5.72871 40.1323L9.41174 41.09C9.75674 41.1797 10.0005 41.1714 10.143 41.0649C10.2855 40.9585 10.4203 40.7065 10.5476 40.3091L10.7694 40.3668L10.2049 42.5376L5.47342 41.3073C5.16874 41.228 4.94417 41.2271 4.79971 41.3043C4.65857 41.3872 4.5487 41.6074 4.4701 41.9648L4.28192 41.9159C4.27879 41.652 4.27445 41.4571 4.2689 41.3313C4.26782 41.2066 4.25802 40.996 4.23948 40.6994C4.22944 40.5724 4.19952 40.292 4.14971 39.8581C4.15553 39.8357 4.17023 39.8251 4.1938 39.8265C4.21289 39.8267 4.23587 39.8302 4.26275 39.8372L5.34481 40.1186C5.06111 39.7196 4.86451 39.3719 4.75502 39.0755C4.58521 38.6248 4.55565 38.1866 4.66634 37.7609C4.7677 37.3711 5.00213 37.0398 5.36964 36.767C5.73383 36.4886 6.23853 36.4333 6.88373 36.6011L10.3719 37.5081C10.7303 37.6013 10.9898 37.5875 11.1504 37.4666C11.2522 37.3878 11.3607 37.1912 11.476 36.8768L11.6642 36.9257L11.1416 38.9352Z" fill="#333333"/>
<path d="M3.18268 45.6085C3.21837 45.9693 3.28074 46.2095 3.3698 46.329C3.50574 46.513 3.77508 46.6031 4.17784 46.5995L7.76792 46.5668C8.11049 46.5637 8.3346 46.5153 8.44023 46.4218C8.54591 46.3329 8.5978 46.1842 8.5959 45.9759C8.59502 45.8787 8.58971 45.8047 8.57999 45.7538C8.57031 45.7076 8.5536 45.6522 8.52987 45.5876L8.77291 45.5854L8.94411 46.0839C9.00594 46.2639 9.11743 46.5592 9.27857 46.9697C9.43972 47.3803 9.5204 47.5972 9.52061 47.6203C9.52082 47.6435 9.50938 47.6575 9.48627 47.6623C9.46317 47.6671 9.41921 47.6699 9.3544 47.6705L8.41695 47.679C8.83776 48.1335 9.12839 48.5267 9.28882 48.8586C9.45388 49.1904 9.53801 49.5323 9.54121 49.8841C9.54555 50.3609 9.38698 50.742 9.06549 51.0273C8.89092 51.1771 8.65363 51.3019 8.3536 51.4019C8.70392 51.7413 8.96357 52.0376 9.13254 52.2907C9.42357 52.7278 9.57116 53.1756 9.57534 53.6339C9.58212 54.3792 9.28342 54.8796 8.67925 55.1351C8.33798 55.2818 7.797 55.3585 7.0563 55.3652L4.17451 55.3914C3.84582 55.3944 3.62195 55.4682 3.50289 55.6128C3.38851 55.762 3.31452 56.0266 3.28094 56.4065L3.1004 56.4082L3.0719 53.2764L3.26633 53.2746C3.30703 53.677 3.39045 53.9402 3.51658 54.064C3.64275 54.1925 3.89796 54.255 4.28219 54.2515L7.27509 54.2243C7.72414 54.2202 8.05469 54.1686 8.26676 54.0694C8.64481 53.8947 8.83156 53.5573 8.82701 53.0574C8.82427 52.7564 8.72203 52.4588 8.52027 52.1643C8.40297 51.9941 8.21588 51.7851 7.95899 51.5374L4.40363 51.5698C4.02865 51.5732 3.74453 51.6406 3.55128 51.772C3.35806 51.908 3.25645 52.189 3.24644 52.6151L3.06589 52.6167L3.03689 49.4294L3.21744 49.4277C3.27699 49.867 3.38601 50.1461 3.54451 50.2651C3.703 50.384 4.0901 50.4407 4.70581 50.4351L6.65015 50.4174C7.36307 50.4109 7.85337 50.3601 8.12103 50.2651C8.57332 50.1082 8.79721 49.7821 8.7927 49.2867C8.79013 49.0043 8.7089 48.7273 8.54902 48.4556C8.39376 48.1838 8.1902 47.9449 7.93831 47.7389L4.13991 47.7735C3.78808 47.7767 3.54558 47.8391 3.41242 47.9606C3.27931 48.0869 3.21231 48.356 3.21143 48.7681L3.03089 48.7697L3.00213 45.6101L3.18268 45.6085Z" fill="#333333"/>
<path d="M12.9933 66.8694C13.1292 67.1788 13.1862 67.4926 13.1641 67.8107C13.1496 68.0193 13.0984 68.2365 13.0105 68.4623L15.0322 67.574C15.2908 67.4604 15.4558 67.3525 15.5272 67.2503C15.6005 67.1524 15.5896 66.9953 15.4946 66.7792C15.4723 66.7283 15.4506 66.6847 15.4296 66.6484C15.4086 66.6121 15.3629 66.5311 15.2924 66.4053L15.5023 66.3131L15.8648 66.7758C15.9995 66.9442 16.1363 67.1116 16.2752 67.2781C16.4141 67.4447 16.5406 67.5888 16.6548 67.7106C16.7058 67.7691 16.7954 67.8637 16.9237 67.9945L16.9277 68.0382L16.2546 68.3188C16.0111 68.4207 15.7592 68.5263 15.4988 68.6357C15.2426 68.7432 14.9895 68.8519 14.7394 68.9618L9.53953 71.2313C9.26403 71.3523 9.08608 71.471 9.00567 71.5872C8.92527 71.7034 8.94932 71.9078 9.07781 72.2002C9.0983 72.2469 9.11879 72.2935 9.13927 72.3401C9.16399 72.3849 9.19084 72.4287 9.2198 72.4716L9.00999 72.5638C8.99034 72.5421 8.74937 72.2813 8.28706 71.7816L7.47338 70.9482L7.51105 70.8786L8.29305 70.535C7.93021 70.4112 7.65552 70.2867 7.46896 70.1613C7.14228 69.9357 6.88956 69.6195 6.71078 69.2126C6.39419 68.492 6.41481 67.7851 6.77265 67.0919C7.13659 66.401 7.68519 65.8945 8.41845 65.5723C9.3382 65.1682 10.2439 65.0889 11.1355 65.3343C12.0332 65.582 12.6525 66.0937 12.9933 66.8694ZM7.65441 69.4958C7.79967 69.8264 8.01448 70.0506 8.29884 70.1684C8.5832 70.2861 8.81227 70.3069 8.98604 70.2305L11.7135 69.0321C12.2645 68.79 12.5872 68.4713 12.6814 68.0759C12.7818 67.6829 12.7706 67.3465 12.6476 67.0667C12.413 66.5327 11.9931 66.2216 11.3881 66.1335C10.7872 66.0435 10.1414 66.1503 9.4505 66.4539C8.7681 66.7537 8.22879 67.1777 7.83255 67.726C7.43817 68.2786 7.37879 68.8685 7.65441 69.4958Z" fill="#333333"/>
<path d="M12.9458 74.1701C13.6888 73.6255 14.4886 73.401 15.345 73.4965C16.2078 73.593 16.9116 74.0128 17.4562 74.7559C17.9981 75.4952 18.2042 76.2855 18.0746 77.1267C17.9449 77.9679 17.4768 78.6841 16.6703 79.2752C15.9272 79.8199 15.1088 80.0581 14.2151 79.9899C13.3214 79.9217 12.6008 79.5143 12.0534 78.7675C11.528 78.0505 11.3465 77.2508 11.509 76.3683C11.6715 75.4858 12.1504 74.7531 12.9458 74.1701ZM17.0052 74.8454C16.789 74.5504 16.5044 74.3658 16.1515 74.2915C15.538 74.1672 14.815 74.4101 13.9823 75.0205C13.3176 75.5076 12.8073 76.1113 12.4512 76.8315C12.0978 77.5554 12.1168 78.1843 12.5082 78.7183C12.8147 79.1365 13.2424 79.3167 13.7912 79.2588C14.3427 79.2047 14.9303 78.9491 15.5539 78.4921C16.1998 78.0186 16.7031 77.4288 17.0637 76.7225C17.4243 76.0163 17.4048 75.3906 17.0052 74.8454Z" fill="#333333"/>
<path d="M16.932 83.9026C17.275 84.1663 17.5465 84.303 17.7466 84.3126C17.9499 84.3189 18.1828 84.1818 18.4452 83.9011L23.0795 78.9458C23.2882 78.7226 23.4135 78.5514 23.4553 78.4321C23.5205 78.2268 23.45 78.0277 23.2437 77.8348C23.1964 77.7906 23.1392 77.7466 23.0722 77.703C23.0087 77.6626 22.9251 77.6129 22.8216 77.5542L22.9781 77.3868C23.5484 77.692 24.2497 78.0435 25.0819 78.4415C25.1056 78.4636 25.1096 78.4864 25.094 78.5099C25.0818 78.5365 25.0441 78.5836 24.9808 78.6512L19.2936 84.7325C19.0185 85.0267 18.8905 85.2652 18.9097 85.4479C18.9321 85.6273 19.0912 85.8775 19.3869 86.1984L19.2541 86.3404L16.7992 84.0447L16.932 83.9026Z" fill="#333333"/>
<path d="M24.1193 86.2399C24.613 85.462 25.2761 84.9617 26.1084 84.7388C26.9472 84.5144 27.7555 84.6491 28.5333 85.1428C29.3073 85.634 29.787 86.295 29.9727 87.1256C30.1583 87.9563 29.9831 88.7937 29.4473 89.638C28.9536 90.4159 28.2781 90.9358 27.4209 91.1978C26.5637 91.4597 25.7443 91.3426 24.9625 90.8465C24.2121 90.3701 23.7518 89.6914 23.5817 88.8103C23.4117 87.9292 23.5909 87.0724 24.1193 86.2399ZM28.1459 85.3904C27.8371 85.1944 27.5049 85.1261 27.1491 85.1855C26.5325 85.2931 25.9476 85.7827 25.3943 86.6543C24.9527 87.3501 24.6973 88.0982 24.6279 88.8986C24.5624 89.7015 24.8092 90.2803 25.3681 90.6351C25.8059 90.9129 26.2698 90.925 26.7599 90.6713C27.2538 90.42 27.708 89.968 28.1223 89.3152C28.5515 88.639 28.8054 87.9064 28.884 87.1173C28.9626 86.3283 28.7166 85.7526 28.1459 85.3904Z" fill="#333333"/>
<path d="M31.1774 93.7526C31.5875 93.8732 31.8775 93.907 32.0473 93.8541C32.2188 93.7969 32.372 93.5958 32.5069 93.2509L33.6475 90.3341C33.8144 89.9072 33.8923 89.5872 33.8812 89.3741C33.8761 89.1584 33.7679 89.0092 33.5566 88.9266C33.5135 88.9097 33.4527 88.8934 33.3744 88.8777C33.302 88.8593 33.2237 88.8436 33.1393 88.8305L33.2228 88.6171C33.5023 88.6269 33.7891 88.6372 34.0832 88.6478C34.3773 88.6584 34.5815 88.6637 34.6958 88.6637C34.9434 88.6661 35.2017 88.6602 35.4707 88.6461C35.5009 88.6579 35.5139 88.6754 35.5098 88.6986C35.51 88.7236 35.4966 88.7705 35.4696 88.8395L35.0549 89.9002C35.4809 89.6243 35.8632 89.4284 36.2019 89.3123C36.5449 89.1978 36.8544 89.1946 37.1303 89.3025C37.3502 89.3885 37.503 89.5253 37.5887 89.7129C37.6761 89.8962 37.681 90.087 37.6035 90.2853C37.5344 90.4621 37.4223 90.5898 37.2673 90.6684C37.1166 90.7486 36.9615 90.7576 36.802 90.6952C36.6381 90.6311 36.5016 90.4908 36.3925 90.2741C36.2877 90.0591 36.1878 89.9331 36.093 89.896C35.9421 89.837 35.7086 89.8874 35.3926 90.0472C35.0783 90.2026 34.8706 90.4097 34.7694 90.6684L33.6288 93.5852C33.4838 93.956 33.4689 94.2485 33.5841 94.4625C33.7009 94.6722 33.9615 94.8512 34.3658 94.9993L34.2824 95.2128L31.0939 93.966L31.1774 93.7526Z" fill="#333333"/>
<path d="M45.9856 95.7052L46.2145 95.717C46.2937 96.2495 46.4162 96.6615 46.582 96.9528C46.879 97.4873 47.3396 97.7706 47.9637 97.8027C48.3105 97.8205 48.5882 97.7398 48.7967 97.5604C49.0101 97.3767 49.1247 97.1323 49.1404 96.8271C49.1504 96.633 49.1023 96.4427 48.9959 96.2565C48.8896 96.0702 48.6952 95.884 48.4128 95.698L47.6589 95.2142C47.1059 94.8798 46.7033 94.5508 46.4511 94.2272C46.1988 93.9036 46.0836 93.5315 46.1052 93.1107C46.1319 92.5929 46.3387 92.1771 46.7257 91.8632C47.1127 91.5494 47.5859 91.4068 48.1454 91.4356C48.3904 91.4482 48.6562 91.5083 48.9427 91.6157C49.2338 91.7234 49.3979 91.7782 49.4349 91.7801C49.5181 91.7844 49.5788 91.7759 49.617 91.7547C49.6552 91.7335 49.6894 91.6982 49.7198 91.6488L49.8862 91.6573L49.8352 93.5947L49.6202 93.5837C49.5508 93.1304 49.444 92.7749 49.2996 92.5172C49.0368 92.0401 48.6349 91.7876 48.0939 91.7598C47.7703 91.7431 47.5109 91.8295 47.3157 92.0187C47.1205 92.208 47.016 92.4368 47.0022 92.7049C46.9804 93.1303 47.2799 93.5258 47.9008 93.8915L48.7909 94.431C49.7481 95.018 50.2084 95.6675 50.1717 96.3796C50.1436 96.9251 49.9149 97.3607 49.4856 97.6863C49.0609 98.0121 48.518 98.158 47.8568 98.124C47.5794 98.1097 47.2674 98.0473 46.9208 97.9367C46.5741 97.8262 46.3685 97.7693 46.3037 97.7659C46.2483 97.7631 46.1986 97.7814 46.1549 97.8208C46.1114 97.8557 46.0766 97.9003 46.0507 97.9546L45.8703 97.9453L45.9856 95.7052Z" fill="#333333"/>
<path d="M54.3296 88.9252C54.3054 88.7276 54.3534 88.5491 54.4738 88.3898C54.5942 88.2304 54.7554 88.1383 54.9576 88.1135C55.1552 88.0892 55.3317 88.1399 55.487 88.2654C55.6464 88.3858 55.7385 88.5471 55.7633 88.7493C55.7875 88.9468 55.7372 89.1256 55.6122 89.2855C55.4913 89.4403 55.332 89.5298 55.1344 89.5541C54.9322 89.5789 54.7537 89.5308 54.599 89.4099C54.4436 89.2843 54.3539 89.1228 54.3296 88.9252ZM54.5157 97.7389C55.0017 97.6326 55.3017 97.5118 55.4157 97.3765C55.5292 97.2367 55.5529 96.898 55.4869 96.3603L55.0834 93.0725C55.0468 92.7738 55.0007 92.5696 54.9453 92.4598C54.8532 92.2799 54.6969 92.2034 54.4764 92.2305C54.4258 92.2367 54.3758 92.2475 54.3264 92.2629C54.2816 92.2777 54.1482 92.3314 53.9264 92.4239L53.9002 92.2103L54.1847 92.0774C54.9567 91.7168 55.4931 91.4504 55.7938 91.2782C55.9157 91.2073 55.995 91.1696 56.0318 91.1651C56.0449 91.1961 56.0537 91.23 56.0582 91.2668L56.6656 96.2157C56.7298 96.7395 56.8322 97.0605 56.9726 97.1785C57.1176 97.296 57.4153 97.3457 57.8655 97.3278L57.8892 97.5208L54.5393 97.9319L54.5157 97.7389Z" fill="#333333"/>
<path d="M63.2329 89.6831L63.3693 90.1641L62.0065 90.5506L63.0845 94.4026C63.1805 94.7411 63.282 94.989 63.3892 95.1463C63.5833 95.4233 63.8362 95.5176 64.1479 95.4291C64.3083 95.3837 64.4356 95.3066 64.5299 95.1981C64.6287 95.0883 64.7305 94.9295 64.8352 94.7217L65.0505 94.8195L64.9604 95.0616C64.8172 95.439 64.6348 95.729 64.4131 95.9314C64.1914 96.1338 63.9603 96.2691 63.7198 96.3374C63.1942 96.4864 62.7716 96.3536 62.4519 95.939C62.2775 95.7142 62.1264 95.3769 61.9989 94.927L60.8507 90.8784L60.1224 91.0849C60.0964 91.0779 60.0748 91.0696 60.0576 91.06C60.0449 91.0492 60.0354 91.0326 60.0291 91.0104C60.0165 90.9658 60.0159 90.9299 60.0274 90.9026C60.0421 90.8695 60.0903 90.7933 60.1719 90.6739C60.4072 90.3329 60.5696 90.0655 60.659 89.8717C60.7516 89.6722 60.9535 89.1626 61.2648 88.3428C61.3227 88.3264 61.3574 88.3214 61.3688 88.3278C61.3847 88.3329 61.4009 88.3644 61.4173 88.4223L61.8834 90.0658L63.2329 89.6831Z" fill="#333333"/>
<path d="M75.7717 86.1941C75.4306 86.6391 75.1765 87.0473 75.0093 87.4188C74.6901 88.1345 74.6776 88.7086 74.972 89.1411C75.2091 89.4893 75.4985 89.6676 75.8401 89.6758C76.0623 89.6814 76.2652 89.6216 76.4489 89.4966C76.7015 89.3246 76.8944 89.0897 77.0276 88.7918C77.1647 88.4913 77.159 88.232 77.0105 88.0138L75.7717 86.1941ZM74.2199 90.2328C73.8421 89.6778 73.8043 89.0259 74.1065 88.2769C74.3023 87.8076 74.7922 87.0177 75.5763 85.9071L75.2442 85.4191C74.9784 85.0288 74.7552 84.7831 74.5744 84.6821C74.2698 84.5143 73.9127 84.5698 73.5032 84.8485C73.308 84.9814 73.1563 85.1575 73.048 85.3768C72.9423 85.6 72.9507 85.8015 73.0731 85.9814C73.1044 86.0273 73.1673 86.0992 73.262 86.1972C73.3541 86.2913 73.4106 86.3537 73.4314 86.3843C73.5773 86.5986 73.6081 86.7961 73.5238 86.9767C73.4773 87.0811 73.3986 87.1711 73.2876 87.2467C73.1154 87.3639 72.9456 87.3983 72.7782 87.3498C72.6082 87.2976 72.4763 87.2025 72.3825 87.0648C72.2001 86.7969 72.1745 86.4055 72.3056 85.8906C72.438 85.3692 72.8237 84.891 73.4628 84.456C74.2052 83.9506 74.8726 83.8491 75.4649 84.1515C75.7863 84.3192 76.1189 84.6556 76.4628 85.1608L78.0298 87.4627C78.1809 87.6847 78.3005 87.8273 78.3884 87.8907C78.5397 88.0061 78.6939 88.0104 78.8508 87.9035C78.9388 87.8436 79.0024 87.7807 79.0416 87.7149C79.0807 87.649 79.1359 87.5162 79.2072 87.3165L79.4104 87.615C79.3895 87.8476 79.3409 88.0599 79.2644 88.252C79.1491 88.5433 78.9805 88.7645 78.7585 88.9156C78.4983 89.0928 78.2515 89.1376 78.0182 89.0499C77.7888 88.9597 77.5889 88.8018 77.4185 88.5761C77.2996 89.0267 77.1785 89.3836 77.0552 89.6467C76.8476 90.0905 76.5869 90.4191 76.2731 90.6328C75.944 90.8568 75.5807 90.9361 75.1833 90.8706C74.7833 90.8013 74.4621 90.5887 74.2199 90.2328Z" fill="#333333"/>
<path d="M82.6824 85.7047C82.895 85.411 83.0076 85.1899 83.0202 85.0414C83.0405 84.8135 82.8987 84.5674 82.5949 84.303L79.8864 81.9464C79.6279 81.7215 79.4281 81.6091 79.287 81.609C79.1489 81.6055 79.0115 81.6823 78.8748 81.8395C78.811 81.9128 78.7658 81.9717 78.7394 82.0162C78.716 82.0572 78.6918 82.1098 78.6667 82.1739L78.4833 82.0143L78.6858 81.5277C78.7589 81.352 78.8713 81.0571 79.023 80.6429C79.1747 80.2288 79.2582 80.013 79.2734 79.9955C79.2886 79.978 79.3064 79.9751 79.3269 79.9868C79.3474 79.9985 79.3821 80.0257 79.431 80.0682L80.1383 80.6836C80.1248 80.0643 80.1681 79.5773 80.2681 79.2225C80.3647 78.8647 80.5284 78.553 80.7594 78.2876C81.0724 77.9279 81.4438 77.7478 81.8737 77.7475C82.1036 77.7512 82.364 77.8152 82.6548 77.9394C82.6178 77.453 82.6199 77.0591 82.6614 76.7576C82.7335 76.2374 82.92 75.8044 83.2208 75.4586C83.7101 74.8963 84.2655 74.7199 84.8872 74.9294C85.2398 75.046 85.6956 75.3474 86.2544 75.8336L88.4285 77.7253C88.6765 77.9411 88.893 78.0343 89.078 78.0051C89.2626 77.9693 89.4934 77.8203 89.7705 77.5582L89.9067 77.6768L87.851 80.0395L87.7043 79.9119C87.9407 79.5837 88.0528 79.3314 88.0406 79.1551C88.0313 78.9753 87.8818 78.7592 87.5919 78.507L85.3339 76.5424C84.9952 76.2476 84.7135 76.067 84.4891 76.0006C84.0902 75.8806 83.7267 76.0092 83.3985 76.3864C83.201 76.6134 83.0801 76.904 83.0358 77.2582C83.0106 77.4634 83.0121 77.7439 83.0401 78.0996L85.7224 80.4335C86.0053 80.6796 86.2626 80.8176 86.4944 80.8475C86.7292 80.8738 86.9917 80.7309 87.2817 80.4187L87.4179 80.5372L85.3257 82.9419L85.1895 82.8233C85.4362 82.4551 85.5398 82.1739 85.5 81.9797C85.4603 81.7856 85.2082 81.4865 84.7436 81.0823L83.2767 79.806C82.7389 79.338 82.3383 79.0508 82.0749 78.9444C81.6324 78.7618 81.2485 78.8574 80.9234 79.2311C80.738 79.4442 80.615 79.7054 80.5545 80.0148C80.4905 80.3211 80.4844 80.6349 80.5362 80.9562L83.4019 83.4496C83.6673 83.6805 83.8902 83.7947 84.0705 83.792C84.2538 83.7858 84.4825 83.6288 84.7564 83.321L84.8926 83.4395L82.8186 85.8232L82.6824 85.7047Z" fill="#333333"/>
<path d="M87.271 68.733C87.5602 68.1478 88.0169 67.7357 88.641 67.4968C89.261 67.2558 89.9425 67.3188 90.6854 67.686L88.7318 71.6393C89.7152 72.0736 90.5243 72.2023 91.1591 72.0254C91.7939 71.8486 92.2447 71.4903 92.5113 70.9508C92.7266 70.515 92.794 70.0913 92.7134 69.6796C92.6328 69.268 92.4455 68.832 92.1514 68.3717L92.3338 68.1907C92.7768 68.6213 93.1065 69.1819 93.323 69.8724C93.5416 70.5588 93.4837 71.2402 93.1494 71.9168C92.7638 72.697 92.1707 73.1553 91.37 73.2916C90.5715 73.4237 89.7883 73.3 89.0204 72.9206C88.1862 72.5083 87.5881 71.9055 87.2262 71.1121C86.8643 70.3188 86.8793 69.5257 87.271 68.733ZM87.547 69.3187C87.3132 69.7918 87.3444 70.2565 87.6405 70.7127C87.799 70.9563 88.0341 71.1912 88.3457 71.4175L89.644 68.7902C89.2064 68.6308 88.8582 68.5568 88.5995 68.5684C88.1337 68.5913 87.7829 68.8414 87.547 69.3187Z" fill="#333333"/>
<path d="M90.4597 60.4092L90.9404 60.5469L90.5502 61.9088L94.3916 63.0238C94.7299 63.1207 94.9941 63.1651 95.1842 63.157C95.5219 63.1381 95.7354 62.9729 95.8246 62.6614C95.8705 62.5012 95.8722 62.3524 95.8297 62.215C95.7885 62.0732 95.7072 61.903 95.5859 61.7045L95.7825 61.573L95.9407 61.7772C96.1859 62.0979 96.3361 62.4058 96.3912 62.7009C96.4463 62.996 96.4394 63.2638 96.3706 63.5041C96.2201 64.0292 95.8845 64.3183 95.3636 64.3714C95.0806 64.4011 94.7143 64.3515 94.2648 64.2227L90.2193 63.0637L90.0108 63.7914C89.9911 63.8098 89.9727 63.8238 89.9555 63.8333C89.9396 63.8384 89.9205 63.8377 89.8983 63.8314C89.8538 63.8186 89.8229 63.8001 89.8058 63.776C89.7854 63.7461 89.7461 63.6649 89.6877 63.5326C89.522 63.1529 89.3804 62.8739 89.2628 62.6958C89.1421 62.5119 88.8156 62.0716 88.2832 61.3749C88.2998 61.317 88.3138 61.2849 88.3252 61.2786C88.338 61.2678 88.3733 61.2707 88.4311 61.2872L90.0734 61.7577L90.4597 60.4092Z" fill="#333333"/>
<path d="M97.6968 55.0791C98.1604 55.1403 98.5697 55.3648 98.9248 55.7525C99.2799 56.1403 99.5192 56.5384 99.6428 56.947L99.3501 57.0415C99.1604 56.5681 98.9319 56.2298 98.6645 56.0264C98.3978 55.8184 98.168 55.7017 97.9753 55.6763C97.911 55.6678 97.867 55.683 97.8432 55.7219C97.8194 55.7607 97.8044 55.8031 97.7984 55.849L97.7857 56.3167C97.7603 56.5094 97.675 56.678 97.5298 56.8223C97.3801 56.9659 97.1859 57.022 96.9473 56.9905C96.7637 56.9663 96.5935 56.8761 96.4366 56.72C96.2798 56.5639 96.2213 56.3344 96.2613 56.0314C96.2995 55.7423 96.4484 55.4981 96.7082 55.2989C96.9634 55.0991 97.2929 55.0258 97.6968 55.0791Z" fill="#333333"/>
<path d="M90.7387 42.8287C90.633 42.2598 90.6901 41.743 90.9098 41.2784C91.1241 40.81 91.4066 40.5433 91.757 40.4782C91.9072 40.4503 92.0581 40.4764 92.2095 40.5566C92.3564 40.6376 92.4502 40.7873 92.4908 41.0058C92.5204 41.1651 92.492 41.3164 92.4055 41.4596C92.3183 41.5982 92.1751 41.7143 91.9758 41.8078L91.6633 41.9506C91.4331 42.0546 91.2814 42.1887 91.2083 42.353C91.1407 42.521 91.1297 42.7278 91.1753 42.9736C91.2717 43.4925 91.5809 43.8895 92.1029 44.1645C92.6195 44.4358 93.2533 44.5017 94.0043 44.3621C94.6916 44.2344 95.272 43.9241 95.7455 43.4312C96.2181 42.9337 96.3923 42.3504 96.2679 41.6813C96.18 41.208 95.947 40.8157 95.569 40.5045C95.3526 40.3281 95.0264 40.1439 94.5905 39.9517L94.671 39.739C95.2654 39.897 95.7486 40.0897 96.1205 40.3173C96.8327 40.7547 97.2561 41.3353 97.3905 42.059C97.5225 42.7691 97.3592 43.4492 96.9009 44.0994C96.4425 44.7497 95.7331 45.164 94.7727 45.3424C93.8305 45.5175 92.9649 45.3699 92.1759 44.8996C91.3869 44.4294 90.9079 43.7391 90.7387 42.8287Z" fill="#333333"/>
<path d="M92.6137 36.4596C91.7636 36.8148 90.9335 36.8456 90.1234 36.5519C89.3072 36.2557 88.7216 35.6825 88.3664 34.8325C88.013 33.9867 87.9979 33.1701 88.3212 32.3828C88.6445 31.5954 89.2675 31.009 90.1902 30.6234C91.0402 30.2683 91.8917 30.2286 92.7445 30.5045C93.5973 30.7803 94.2022 31.3454 94.5592 32.1998C94.9019 33.0199 94.8908 33.8399 94.5259 34.6597C94.1609 35.4795 93.5235 36.0795 92.6137 36.4596ZM88.8258 34.8512C88.9668 35.1887 89.2001 35.4349 89.5258 35.5899C90.093 35.8546 90.8529 35.788 91.8055 35.3899C92.5658 35.0722 93.2035 34.6051 93.7186 33.9885C94.2318 33.3676 94.3609 32.7518 94.1056 32.1409C93.9057 31.6625 93.5322 31.387 92.9852 31.3146C92.4363 31.2378 91.8052 31.3485 91.0918 31.6466C90.3528 31.9554 89.7253 32.4107 89.2091 33.0127C88.693 33.6147 88.5652 34.2276 88.8258 34.8512Z" fill="#333333"/>
<path d="M91.0869 26.0146C90.8634 25.77 90.6651 25.6295 90.492 25.5929C90.3125 25.5552 90.0487 25.6591 89.7006 25.9046L86.8235 27.934C86.5814 28.1047 86.4271 28.2475 86.3608 28.3623C86.2677 28.5356 86.2999 28.7338 86.4574 28.957C86.4814 28.9911 86.5086 29.0257 86.5391 29.0608C86.5669 29.0922 86.6032 29.1317 86.6482 29.1794L86.4495 29.3194C86.2947 29.1964 85.9186 28.9121 85.3212 28.4667L84.769 28.0573C84.7504 28.0309 84.7491 28.0091 84.7654 27.9919C84.779 27.971 84.8028 27.9486 84.8368 27.9245L85.671 27.3362C85.1002 27.2176 84.6849 27.1026 84.425 26.9913C84.0315 26.827 83.7227 26.5859 83.4985 26.2681C83.3171 26.0109 83.2254 25.7243 83.2235 25.4083C83.2229 24.797 83.5914 24.2311 84.3291 23.7108L86.9793 21.8415C87.2516 21.6494 87.4097 21.4558 87.4534 21.2607C87.497 21.0656 87.43 20.8381 87.2524 20.5782L87.4113 20.4661L89.1204 22.8892L88.9615 23.0013C88.7289 22.7518 88.5171 22.6122 88.3262 22.5826C88.1316 22.5556 87.8413 22.6782 87.4554 22.9504L85.0323 24.6595C84.7069 24.8889 84.481 25.1389 84.3545 25.4094C84.2243 25.6826 84.2739 25.9818 84.5034 26.3072C84.6608 26.5304 84.8966 26.704 85.2107 26.8281C85.3884 26.8953 85.6496 26.9604 85.9942 27.0233L89.1721 24.7818C89.4445 24.5897 89.5853 24.3997 89.5945 24.212C89.5999 24.0268 89.5143 23.8011 89.3377 23.5347L89.4966 23.4227L91.2458 25.9025L91.0869 26.0146Z" fill="#333333"/>
<path d="M83.0722 18.9784L82.9046 18.822C83.1868 18.3635 83.3583 17.9694 83.419 17.6398C83.5358 17.0396 83.3657 16.5263 82.9088 16.0999C82.6549 15.863 82.3905 15.746 82.1154 15.749C81.8339 15.7522 81.5888 15.8655 81.3804 16.0888C81.2477 16.231 81.1621 16.4076 81.1235 16.6185C81.085 16.8295 81.1139 17.0971 81.2102 17.4213L81.4757 18.2769C81.6835 18.8888 81.7798 19.3997 81.7645 19.8097C81.7492 20.2197 81.5978 20.5787 81.3104 20.8867C80.9566 21.2658 80.5306 21.4508 80.0324 21.4418C79.5342 21.4329 79.0804 21.2373 78.6708 20.8551C78.4914 20.6877 78.3267 20.4706 78.1766 20.204C78.0232 19.9341 77.9329 19.7866 77.9058 19.7613C77.8449 19.7044 77.793 19.6718 77.7501 19.6635C77.7073 19.6551 77.6583 19.6601 77.6033 19.6784L77.4814 19.5647L78.7677 18.115L78.9251 18.2619C78.6864 18.6534 78.5393 18.9942 78.4839 19.2844C78.3779 19.8187 78.5229 20.2706 78.9189 20.6401C79.1558 20.8612 79.4099 20.9622 79.6811 20.943C79.9523 20.9238 80.1795 20.816 80.3627 20.6197C80.6533 20.3083 80.6787 19.8128 80.4391 19.1333L80.1053 18.1474C79.7507 17.082 79.8166 16.2887 80.3031 15.7674C80.6758 15.368 81.1312 15.1819 81.6693 15.2092C82.2041 15.2333 82.7135 15.4712 83.1975 15.9229C83.4006 16.1124 83.5991 16.361 83.7932 16.6687C83.9873 16.9765 84.108 17.1525 84.1554 17.1967C84.196 17.2346 84.2458 17.2525 84.3046 17.2505C84.3604 17.2518 84.4157 17.2401 84.4705 17.2153L84.6025 17.3385L83.0722 18.9784Z" fill="#333333"/>
<path d="M26.8527 9.6177C26.5149 9.87976 26.3177 10.0951 26.2613 10.2638C26.2073 10.4363 26.2808 10.6782 26.4816 10.9894L28.1797 13.621C28.4282 14.0061 28.6421 14.2565 28.8215 14.3722C28.9994 14.4943 29.1837 14.4938 29.3743 14.3708C29.4132 14.3457 29.462 14.306 29.5206 14.2516C29.5778 14.2037 29.6364 14.1493 29.6964 14.0886L29.8206 14.2812C29.6491 14.502 29.473 14.7286 29.2923 14.9609C29.1116 15.1932 28.9879 15.3558 28.921 15.4485C28.7742 15.6479 28.6278 15.8608 28.4819 16.0872C28.4546 16.1048 28.4328 16.1051 28.4164 16.0882C28.396 16.0737 28.3658 16.0354 28.3256 15.9732L27.7081 15.0162C27.6826 15.5231 27.6178 15.9478 27.5138 16.2904C27.4059 16.6355 27.2275 16.8884 26.9785 17.0491C26.7801 17.1771 26.5798 17.221 26.3775 17.1807C26.1777 17.1443 26.0201 17.0367 25.9046 16.8577C25.8017 16.6982 25.7637 16.5327 25.7907 16.361C25.8138 16.1918 25.8973 16.0608 26.0412 15.9679C26.189 15.8725 26.3827 15.844 26.6223 15.8822C26.858 15.923 27.0186 15.9158 27.1042 15.8605C27.2403 15.7727 27.336 15.5539 27.3913 15.2041C27.4492 14.8583 27.4028 14.5686 27.2522 14.3352L25.554 11.7037C25.3381 11.3691 25.1097 11.1859 24.8688 11.1541C24.6304 11.1261 24.3328 11.2328 23.976 11.474L23.8518 11.2814L26.7284 9.42515L26.8527 9.6177Z" fill="#333333"/>
<g clip-path="url(#clip0_872_658)">
<path d="M51 60.35L49.55 59.03C44.4 54.36 41 51.28 41 47.5C41 44.42 43.42 42 46.5 42C48.24 42 49.91 42.81 51 44.09C52.09 42.81 53.76 42 55.5 42C58.58 42 61 44.42 61 47.5C61 51.28 57.6 54.36 52.45 59.04L51 60.35Z" fill="#333333"/>
</g>
<defs>
<clipPath id="clip0_872_658">
<rect width="24" height="24" fill="white" transform="translate(39 39)"/>
</clipPath>
</defs>
</svg>
